<svg width="140" height="44" viewBox="0 0 156 44" fill="none" xmlns="http://www.w3.org/2000/svg">
<path d="M53.8 29C53.6933 29 53.6 28.96 53.52 28.88C53.44 28.8 53.4 28.7067 53.4 28.6C53.4 28.5333 53.4067 28.46 53.42 28.38L58.38 15.44C58.4333 15.3067 58.5067 15.2 58.6 15.12C58.6933 15.04 58.8333 15 59.02 15H60.38C60.5533 15 60.6867 15.04 60.78 15.12C60.8867 15.2 60.9667 15.3067 61.02 15.44L65.96 28.38C65.9867 28.46 66 28.5333 66 28.6C66 28.7067 65.96 28.8 65.88 28.88C65.8 28.96 65.7067 29 65.6 29H64.58C64.42 29 64.3 28.96 64.22 28.88C64.1533 28.8 64.1067 28.7267 64.08 28.66L62.98 25.82H56.42L55.32 28.66C55.3067 28.7267 55.26 28.8 55.18 28.88C55.1 28.96 54.98 29 54.82 29H53.8ZM57 24.1H62.4L59.7 17L57 24.1ZM71.4784 29.2C70.7318 29.2 70.0918 29.1067 69.5584 28.92C69.0251 28.7333 68.5918 28.5067 68.2584 28.24C67.9251 27.9733 67.6718 27.7067 67.4984 27.44C67.3384 27.1733 67.2518 26.96 67.2384 26.8C67.2251 26.6533 67.2718 26.54 67.3784 26.46C67.4851 26.38 67.5918 26.34 67.6984 26.34H68.5784C68.6584 26.34 68.7184 26.3533 68.7584 26.38C68.8118 26.3933 68.8784 26.4467 68.9584 26.54C69.1318 26.7267 69.3251 26.9133 69.5384 27.1C69.7518 27.2867 70.0118 27.44 70.3184 27.56C70.6384 27.68 71.0318 27.74 71.4984 27.74C72.1784 27.74 72.7384 27.6133 73.1784 27.36C73.6184 27.0933 73.8384 26.7067 73.8384 26.2C73.8384 25.8667 73.7451 25.6 73.5584 25.4C73.3851 25.2 73.0651 25.02 72.5984 24.86C72.1451 24.7 71.5184 24.5333 70.7184 24.36C69.9184 24.1733 69.2851 23.9467 68.8184 23.68C68.3518 23.4 68.0184 23.0733 67.8184 22.7C67.6184 22.3133 67.5184 21.88 67.5184 21.4C67.5184 20.9067 67.6651 20.4333 67.9584 19.98C68.2518 19.5133 68.6784 19.1333 69.2384 18.84C69.8118 18.5467 70.5251 18.4 71.3784 18.4C72.0718 18.4 72.6651 18.4867 73.1584 18.66C73.6518 18.8333 74.0584 19.0533 74.3784 19.32C74.6984 19.5733 74.9384 19.8267 75.0984 20.08C75.2584 20.3333 75.3451 20.5467 75.3584 20.72C75.3718 20.8533 75.3318 20.9667 75.2384 21.06C75.1451 21.14 75.0384 21.18 74.9184 21.18H74.0784C73.9851 21.18 73.9051 21.16 73.8384 21.12C73.7851 21.08 73.7318 21.0333 73.6784 20.98C73.5451 20.8067 73.3851 20.6333 73.1984 20.46C73.0251 20.2867 72.7918 20.1467 72.4984 20.04C72.2184 19.92 71.8451 19.86 71.3784 19.86C70.7118 19.86 70.2118 20 69.8784 20.28C69.5451 20.56 69.3784 20.9133 69.3784 21.34C69.3784 21.5933 69.4518 21.82 69.5984 22.02C69.7451 22.22 70.0251 22.4 70.4384 22.56C70.8518 22.72 71.4651 22.8933 72.2784 23.08C73.1584 23.2533 73.8518 23.4867 74.3584 23.78C74.8651 24.0733 75.2251 24.4133 75.4384 24.8C75.6518 25.1867 75.7584 25.6333 75.7584 26.14C75.7584 26.7 75.5918 27.2133 75.2584 27.68C74.9384 28.1467 74.4584 28.52 73.8184 28.8C73.1918 29.0667 72.4118 29.2 71.4784 29.2ZM78.5338 29C78.4004 29 78.2871 28.96 78.1938 28.88C78.1138 28.7867 78.0738 28.6733 78.0738 28.54V19.06C78.0738 18.9267 78.1138 18.82 78.1938 18.74C78.2871 18.6467 78.4004 18.6 78.5338 18.6H79.4938C79.6271 18.6 79.7338 18.6467 79.8138 18.74C79.8938 18.82 79.9338 18.9267 79.9338 19.06V28.54C79.9338 28.6733 79.8938 28.7867 79.8138 28.88C79.7338 28.96 79.6271 29 79.4938 29H78.5338ZM78.3738 16.66C78.2404 16.66 78.1271 16.62 78.0338 16.54C77.9538 16.4467 77.9137 16.3333 77.9137 16.2V15.12C77.9137 14.9867 77.9538 14.88 78.0338 14.8C78.1271 14.7067 78.2404 14.66 78.3738 14.66H79.6338C79.7671 14.66 79.8738 14.7067 79.9538 14.8C80.0471 14.88 80.0938 14.9867 80.0938 15.12V16.2C80.0938 16.3333 80.0471 16.4467 79.9538 16.54C79.8738 16.62 79.7671 16.66 79.6338 16.66H78.3738ZM85.8175 29.2C85.1508 29.2 84.5442 29.0667 83.9975 28.8C83.4508 28.5333 83.0108 28.1733 82.6775 27.72C82.3442 27.2667 82.1775 26.7533 82.1775 26.18C82.1775 25.26 82.5508 24.5267 83.2975 23.98C84.0442 23.4333 85.0175 23.0733 86.2175 22.9L89.1975 22.48V21.9C89.1975 21.26 89.0108 20.76 88.6375 20.4C88.2775 20.04 87.6842 19.86 86.8575 19.86C86.2575 19.86 85.7708 19.98 85.3975 20.22C85.0375 20.46 84.7842 20.7667 84.6375 21.14C84.5575 21.34 84.4175 21.44 84.2175 21.44H83.3175C83.1708 21.44 83.0575 21.4 82.9775 21.32C82.9108 21.2267 82.8775 21.12 82.8775 21C82.8775 20.8 82.9508 20.5533 83.0975 20.26C83.2575 19.9667 83.4975 19.68 83.8175 19.4C84.1375 19.12 84.5442 18.8867 85.0375 18.7C85.5442 18.5 86.1575 18.4 86.8775 18.4C87.6775 18.4 88.3508 18.5067 88.8975 18.72C89.4442 18.92 89.8708 19.1933 90.1775 19.54C90.4975 19.8867 90.7242 20.28 90.8575 20.72C91.0042 21.16 91.0775 21.6067 91.0775 22.06V28.54C91.0775 28.6733 91.0308 28.7867 90.9375 28.88C90.8575 28.96 90.7508 29 90.6175 29H89.6975C89.5508 29 89.4375 28.96 89.3575 28.88C89.2775 28.7867 89.2375 28.6733 89.2375 28.54V27.68C89.0642 27.92 88.8308 28.16 88.5375 28.4C88.2442 28.6267 87.8775 28.82 87.4375 28.98C86.9975 29.1267 86.4575 29.2 85.8175 29.2ZM86.2375 27.7C86.7842 27.7 87.2842 27.5867 87.7375 27.36C88.1908 27.12 88.5442 26.7533 88.7975 26.26C89.0642 25.7667 89.1975 25.1467 89.1975 24.4V23.84L86.8775 24.18C85.9308 24.3133 85.2175 24.54 84.7375 24.86C84.2575 25.1667 84.0175 25.56 84.0175 26.04C84.0175 26.4133 84.1242 26.7267 84.3375 26.98C84.5642 27.22 84.8442 27.4 85.1775 27.52C85.5242 27.64 85.8775 27.7 86.2375 27.7ZM94.4127 29C94.2793 29 94.166 28.96 94.0727 28.88C93.9927 28.7867 93.9527 28.6733 93.9527 28.54V19.06C93.9527 18.9267 93.9927 18.82 94.0727 18.74C94.166 18.6467 94.2793 18.6 94.4127 18.6H95.3527C95.486 18.6 95.5927 18.6467 95.6727 18.74C95.766 18.82 95.8127 18.9267 95.8127 19.06V19.94C96.1593 19.4867 96.5927 19.12 97.1127 18.84C97.646 18.5467 98.326 18.4 99.1527 18.4C100.019 18.4 100.753 18.5933 101.353 18.98C101.966 19.3533 102.426 19.88 102.733 20.56C103.039 21.2267 103.193 22.0067 103.193 22.9V28.54C103.193 28.6733 103.153 28.7867 103.073 28.88C102.993 28.96 102.886 29 102.753 29H101.753C101.619 29 101.506 28.96 101.413 28.88C101.333 28.7867 101.293 28.6733 101.293 28.54V23C101.293 22.0667 101.066 21.34 100.613 20.82C100.159 20.2867 99.4927 20.02 98.6127 20.02C97.786 20.02 97.1193 20.2867 96.6127 20.82C96.1193 21.34 95.8727 22.0667 95.8727 23V28.54C95.8727 28.6733 95.826 28.7867 95.7327 28.88C95.6527 28.96 95.546 29 95.4127 29H94.4127ZM111.704 29C111.557 29 111.444 28.96 111.364 28.88C111.284 28.7867 111.244 28.6733 111.244 28.54V15.48C111.244 15.3333 111.284 15.22 111.364 15.14C111.444 15.0467 111.557 15 111.704 15H119.864C120.011 15 120.124 15.0467 120.204 15.14C120.284 15.22 120.324 15.3333 120.324 15.48V16.28C120.324 16.4267 120.284 16.54 120.204 16.62C120.124 16.7 120.011 16.74 119.864 16.74H113.184V21.4H119.464C119.611 21.4 119.724 21.4467 119.804 21.54C119.884 21.62 119.924 21.7333 119.924 21.88V22.68C119.924 22.8133 119.884 22.9267 119.804 23.02C119.724 23.1 119.611 23.14 119.464 23.14H113.184V28.54C113.184 28.6733 113.137 28.7867 113.044 28.88C112.964 28.96 112.851 29 112.704 29H111.704ZM126.709 29.2C125.695 29.2 124.849 29.0067 124.169 28.62C123.489 28.2333 122.969 27.7 122.609 27.02C122.249 26.3267 122.049 25.54 122.009 24.66C121.995 24.4333 121.989 24.1467 121.989 23.8C121.989 23.44 121.995 23.1533 122.009 22.94C122.049 22.0467 122.249 21.26 122.609 20.58C122.982 19.9 123.509 19.3667 124.189 18.98C124.869 18.5933 125.709 18.4 126.709 18.4C127.709 18.4 128.549 18.5933 129.229 18.98C129.909 19.3667 130.429 19.9 130.789 20.58C131.162 21.26 131.369 22.0467 131.409 22.94C131.422 23.1533 131.429 23.44 131.429 23.8C131.429 24.1467 131.422 24.4333 131.409 24.66C131.369 25.54 131.169 26.3267 130.809 27.02C130.449 27.7 129.929 28.2333 129.249 28.62C128.569 29.0067 127.722 29.2 126.709 29.2ZM126.709 27.66C127.535 27.66 128.195 27.4 128.689 26.88C129.182 26.3467 129.449 25.5733 129.489 24.56C129.502 24.36 129.509 24.1067 129.509 23.8C129.509 23.4933 129.502 23.24 129.489 23.04C129.449 22.0267 129.182 21.26 128.689 20.74C128.195 20.2067 127.535 19.94 126.709 19.94C125.882 19.94 125.215 20.2067 124.709 20.74C124.215 21.26 123.955 22.0267 123.929 23.04C123.915 23.24 123.909 23.4933 123.909 23.8C123.909 24.1067 123.915 24.36 123.929 24.56C123.955 25.5733 124.215 26.3467 124.709 26.88C125.215 27.4 125.882 27.66 126.709 27.66ZM138.193 29.2C137.18 29.2 136.333 29.0067 135.653 28.62C134.973 28.2333 134.453 27.7 134.093 27.02C133.733 26.3267 133.533 25.54 133.493 24.66C133.48 24.4333 133.473 24.1467 133.473 23.8C133.473 23.44 133.48 23.1533 133.493 22.94C133.533 22.0467 133.733 21.26 134.093 20.58C134.466 19.9 134.993 19.3667 135.673 18.98C136.353 18.5933 137.193 18.4 138.193 18.4C139.193 18.4 140.033 18.5933 140.713 18.98C141.393 19.3667 141.913 19.9 142.273 20.58C142.646 21.26 142.853 22.0467 142.893 22.94C142.906 23.1533 142.913 23.44 142.913 23.8C142.913 24.1467 142.906 24.4333 142.893 24.66C142.853 25.54 142.653 26.3267 142.293 27.02C141.933 27.7 141.413 28.2333 140.733 28.62C140.053 29.0067 139.206 29.2 138.193 29.2ZM138.193 27.66C139.02 27.66 139.68 27.4 140.173 26.88C140.666 26.3467 140.933 25.5733 140.973 24.56C140.986 24.36 140.993 24.1067 140.993 23.8C140.993 23.4933 140.986 23.24 140.973 23.04C140.933 22.0267 140.666 21.26 140.173 20.74C139.68 20.2067 139.02 19.94 138.193 19.94C137.366 19.94 136.7 20.2067 136.193 20.74C135.7 21.26 135.44 22.0267 135.413 23.04C135.4 23.24 135.393 23.4933 135.393 23.8C135.393 24.1067 135.4 24.36 135.413 24.56C135.44 25.5733 135.7 26.3467 136.193 26.88C136.7 27.4 137.366 27.66 138.193 27.66ZM149.217 29.2C148.484 29.2 147.851 29.0733 147.318 28.82C146.784 28.5533 146.344 28.2 145.998 27.76C145.664 27.3067 145.411 26.7933 145.238 26.22C145.078 25.6467 144.984 25.04 144.958 24.4C144.944 24.1867 144.938 23.9867 144.938 23.8C144.938 23.6133 144.944 23.4133 144.958 23.2C144.984 22.5733 145.078 21.9733 145.238 21.4C145.411 20.8267 145.664 20.3133 145.998 19.86C146.344 19.4067 146.784 19.0533 147.318 18.8C147.851 18.5333 148.484 18.4 149.217 18.4C150.004 18.4 150.658 18.54 151.178 18.82C151.698 19.1 152.124 19.4467 152.458 19.86V15.26C152.458 15.1267 152.498 15.02 152.578 14.94C152.671 14.8467 152.784 14.8 152.918 14.8H153.878C154.011 14.8 154.118 14.8467 154.198 14.94C154.291 15.02 154.338 15.1267 154.338 15.26V28.54C154.338 28.6733 154.291 28.7867 154.198 28.88C154.118 28.96 154.011 29 153.878 29H152.978C152.831 29 152.718 28.96 152.638 28.88C152.558 28.7867 152.518 28.6733 152.518 28.54V27.7C152.184 28.1267 151.751 28.4867 151.218 28.78C150.684 29.06 150.018 29.2 149.217 29.2ZM149.638 27.58C150.304 27.58 150.838 27.4267 151.238 27.12C151.638 26.8133 151.938 26.4267 152.138 25.96C152.338 25.48 152.444 24.9933 152.458 24.5C152.471 24.2867 152.478 24.0333 152.478 23.74C152.478 23.4333 152.471 23.1733 152.458 22.96C152.444 22.4933 152.331 22.0333 152.118 21.58C151.918 21.1267 151.611 20.7533 151.198 20.46C150.798 20.1667 150.278 20.02 149.638 20.02C148.958 20.02 148.418 20.1733 148.018 20.48C147.618 20.7733 147.331 21.1667 147.158 21.66C146.984 22.14 146.884 22.66 146.858 23.22C146.844 23.6067 146.844 23.9933 146.858 24.38C146.884 24.94 146.984 25.4667 147.158 25.96C147.331 26.44 147.618 26.8333 148.018 27.14C148.418 27.4333 148.958 27.58 149.638 27.58Z" fill="#363853"/>
<g clip-path="url(#clip0_0_196)">
<g clip-path="url(#clip1_0_196)">
<path d="M15.1315 13.5667H17.2563C17.8077 13.5667 18.2562 14.0152 18.2562 14.5666V16.0315C18.2562 16.3875 18.5448 16.676 18.9007 16.676C19.2567 16.676 19.5453 16.3875 19.5453 16.0315V14.5666C19.5453 13.3044 18.5184 12.2777 17.2563 12.2777H15.1315C14.5894 12.2777 14.1484 11.8366 14.1484 11.2945C14.1484 10.7524 14.5894 10.3115 15.1315 10.3115H19.843C21.0959 10.3115 22.1151 9.2922 22.1151 8.03931C22.1151 6.78643 21.0958 5.76721 19.843 5.76721H16.0738C15.7179 5.76721 15.4293 6.05579 15.4293 6.41174C15.4293 6.7677 15.7179 7.05627 16.0738 7.05627H19.843C20.3851 7.05627 20.8261 7.49731 20.8261 8.03931C20.8261 8.58141 20.385 9.02244 19.843 9.02244H15.1315C13.8786 9.02244 12.8593 10.0417 12.8593 11.2945C12.8593 12.5474 13.8786 13.5667 15.1315 13.5667Z" fill="#363853"/>
<path d="M7.38856 17.8924H9.49713C10.0415 17.8924 10.4844 18.3354 10.4844 18.8798V20.3335C10.4844 20.6895 10.773 20.978 11.1289 20.978C11.4849 20.978 11.7734 20.6895 11.7734 20.3335V18.8798C11.7734 17.6246 10.7522 16.6034 9.49713 16.6034H7.38856C6.85334 16.6034 6.41798 16.1679 6.41798 15.6328C6.41798 15.0977 6.85343 14.6622 7.38856 14.6622H9.85385C10.2098 14.6622 10.4984 14.3737 10.4984 14.0177C10.4984 13.6617 10.2098 13.3732 9.85385 13.3732H7.38856C6.14255 13.3732 5.12892 14.3868 5.12892 15.6328C5.12892 16.8788 6.14255 17.8924 7.38856 17.8924Z" fill="#363853"/>
<path d="M25.6523 26.8125C26.0083 26.8125 26.2969 26.5239 26.2969 26.168C26.2969 25.812 26.0083 25.5234 25.6523 25.5234C25.2964 25.5234 25.0078 25.812 25.0078 26.168C25.0078 26.5239 25.2964 26.8125 25.6523 26.8125Z" fill="#363853"/>
<path d="M28.832 28.2734C29.188 28.2734 29.4766 27.9849 29.4766 27.6289C29.4766 27.2729 29.188 26.9844 28.832 26.9844C28.4761 26.9844 28.1875 27.2729 28.1875 27.6289C28.1875 27.9849 28.4761 28.2734 28.832 28.2734Z" fill="#363853"/>
<path d="M30.7227 30.5078C31.0786 30.5078 31.3672 30.2192 31.3672 29.8633C31.3672 29.5073 31.0786 29.2188 30.7227 29.2188C30.3667 29.2188 30.0781 29.5073 30.0781 29.8633C30.0781 30.2192 30.3667 30.5078 30.7227 30.5078Z" fill="#363853"/>
<path d="M28.0586 25.2656C28.4146 25.2656 28.7031 24.9771 28.7031 24.6211C28.7031 24.2651 28.4146 23.9766 28.0586 23.9766C27.7026 23.9766 27.4141 24.2651 27.4141 24.6211C27.4141 24.9771 27.7026 25.2656 28.0586 25.2656Z" fill="#363853"/>
<path d="M25.9102 30.9375C26.2661 30.9375 26.5547 30.6489 26.5547 30.293C26.5547 29.937 26.2661 29.6484 25.9102 29.6484C25.5542 29.6484 25.2656 29.937 25.2656 30.293C25.2656 30.6489 25.5542 30.9375 25.9102 30.9375Z" fill="#363853"/>
<path d="M42.9114 22.8109H41.083L41.9867 20.9433C43.1331 20.715 44 19.7014 44 18.4889C44 17.2453 43.0882 16.2111 41.8981 16.0186C40.5827 13.6495 38.0131 11.8701 34.8968 11.1599V11.1107C34.8968 10.7548 34.6083 10.4662 34.2523 10.4662C33.9573 10.4662 33.7091 10.6646 33.6326 10.9351C33.2401 10.8845 32.8407 10.8517 32.4363 10.8349C32.333 10.6172 32.1116 10.4662 31.8545 10.4662C31.5973 10.4662 31.376 10.6172 31.2726 10.8349C30.8681 10.8517 30.4687 10.8845 30.0762 10.9352C29.9998 10.6647 29.7516 10.4662 29.4565 10.4662C29.1005 10.4662 28.812 10.7548 28.812 11.1107V11.1599C25.6958 11.8701 23.1261 13.6496 21.8108 16.0186C20.6207 16.2111 19.709 17.2453 19.709 18.4889C19.709 18.5615 19.7123 18.6333 19.7184 18.7043C16.7427 18.981 14.0692 20.2242 12.0633 22.0896H8.01359C7.73755 22.0896 7.4904 22.2134 7.32316 22.408H5.43039C5.12033 21.6246 4.35067 21.071 3.47342 21.071C2.31344 21.071 1.36976 22.0146 1.36976 23.1746C1.36976 23.2737 1.37758 23.3717 1.39124 23.4683C0.580851 23.7608 0 24.5375 0 25.4474C0 25.8514 0.114727 26.2398 0.325445 26.5722C0.114727 26.9047 0 27.293 0 27.697C0 28.857 0.94368 29.8007 2.10366 29.8007C2.98091 29.8007 3.75057 29.2471 4.06063 28.4636H5.76537C5.84358 28.7509 6.0592 28.988 6.35087 29.087L8.37177 29.7733C8.35974 29.9815 8.35321 30.1911 8.35321 30.4021C8.35321 30.6009 8.35888 30.7988 8.36945 30.9961C8.05346 31.0723 7.75852 31.2031 7.49607 31.3792C7.06398 31.0894 6.54491 30.9197 5.98666 30.9197C4.48791 30.9197 3.26863 32.139 3.26863 33.6378C3.26863 33.6607 3.27035 33.6833 3.27095 33.7061H2.51685C2.09129 33.7061 1.71411 33.9452 1.53244 34.3299C1.35077 34.7147 1.40585 35.1578 1.6763 35.4864L3.6098 37.8359C3.81743 38.088 4.12371 38.2327 4.45036 38.2327H31.7103C32.0663 38.2327 32.3548 37.9441 32.3548 37.5882C32.3548 37.2322 32.0663 36.9436 31.7103 36.9436H4.54498L2.94147 34.9952H42.4853L40.8818 36.9436H34.7181C34.362 36.9436 34.0735 37.2322 34.0735 37.5882C34.0735 37.9441 34.362 38.2327 34.7181 38.2327H40.9764C41.3031 38.2327 41.6095 38.088 41.8169 37.8358L43.7504 35.4865C44.0207 35.1578 44.0759 34.7147 43.8942 34.3299C43.7126 33.9451 43.3354 33.7061 42.9099 33.7061H42.2716C42.905 32.61 43.143 31.311 42.9119 30.0346C42.8639 29.7702 42.657 29.5631 42.3925 29.5153C40.6466 29.1992 38.857 29.758 37.6048 31.0101C37.5283 31.0865 37.4554 31.1658 37.3842 31.2462C37.0148 31.0462 36.594 30.9301 36.1474 30.9214V29.695H36.835C37.925 29.695 38.8117 28.8083 38.8117 27.7183V26.8531H42.9114C43.5116 26.8531 44 26.3647 44 25.7645V23.8995C44 23.2992 43.5116 22.8109 42.9114 22.8109ZM6.29054 33.7062H4.56002C4.5589 33.6835 4.5577 33.6608 4.5577 33.6379C4.5577 32.8499 5.1987 32.2089 5.98666 32.2089C6.21079 32.2089 6.42254 32.2614 6.61126 32.354C6.40535 32.7365 6.28813 33.1737 6.28813 33.6379C6.28822 33.6608 6.28994 33.6833 6.29054 33.7062ZM38.5163 31.9216C39.3595 31.0786 40.5223 30.6483 41.7005 30.7267C41.7727 31.812 41.412 32.8847 40.6953 33.7062H39.6325L40.5131 32.8256C40.7648 32.5739 40.7648 32.1658 40.5131 31.9141C40.2613 31.6624 39.8533 31.6624 39.6015 31.9141L38.6882 32.8275C38.6075 32.5698 38.4893 32.3286 38.3402 32.1101C38.3969 32.0456 38.4553 31.9826 38.5163 31.9216ZM25.5032 13.9422C26.4787 13.2886 27.6054 12.7984 28.812 12.4901V13.1534C28.812 13.5093 29.1005 13.7979 29.4565 13.7979C29.8126 13.7979 30.1011 13.5093 30.1011 13.1534V12.2345C30.4665 12.1825 30.8368 12.1482 31.2099 12.129V13.1534C31.2099 13.5093 31.4984 13.7979 31.8545 13.7979C32.2105 13.7979 32.499 13.5093 32.499 13.1534V12.129C32.8721 12.1482 33.2424 12.1826 33.6077 12.2345V13.1534C33.6077 13.5093 33.8962 13.7979 34.2523 13.7979C34.6083 13.7979 34.8968 13.5093 34.8968 13.1534V12.4901C36.1035 12.7984 37.2302 13.2886 38.2057 13.9423C39.1561 14.579 39.9304 15.3479 40.4945 16.1982C40.2768 16.294 40.0729 16.42 39.89 16.5732C39.4452 16.2005 38.8773 15.9861 38.2829 15.9861C37.6885 15.9861 37.1205 16.2005 36.6758 16.5732C36.231 16.2005 35.663 15.9861 35.0687 15.9861C34.4743 15.9861 33.9063 16.2005 33.4616 16.5732C33.0168 16.2005 32.4488 15.9861 31.8545 15.9861C31.26 15.9861 30.6921 16.2005 30.2473 16.5732C29.8025 16.2005 29.2346 15.9861 28.6402 15.9861C28.0458 15.9861 27.4778 16.2005 27.0331 16.5732C26.5884 16.2005 26.0204 15.9861 25.426 15.9861C24.8316 15.9861 24.2637 16.2005 23.8189 16.5732C23.6361 16.42 23.4321 16.294 23.2144 16.1982C23.7785 15.3478 24.5528 14.5789 25.5032 13.9422ZM22.2117 17.2751C22.642 17.2751 23.0441 17.5077 23.2612 17.8822C23.3765 18.0809 23.5889 18.2034 23.8188 18.2034C24.0486 18.2034 24.261 18.081 24.3763 17.8823C24.5935 17.5077 24.9957 17.2751 25.4259 17.2751C25.8562 17.2751 26.2584 17.5077 26.4755 17.8822C26.5908 18.0809 26.8031 18.2034 27.033 18.2034C27.2629 18.2034 27.4752 18.081 27.5906 17.8822C27.8077 17.5077 28.2098 17.2751 28.6401 17.2751C29.0703 17.2751 29.4725 17.5077 29.6898 17.8823C29.8051 18.081 30.0175 18.2034 30.2472 18.2034C30.4771 18.2034 30.6895 18.081 30.8048 17.8822C31.0219 17.5077 31.4241 17.2751 31.8544 17.2751C32.2846 17.2751 32.6868 17.5077 32.904 17.8823C33.0192 18.081 33.2317 18.2034 33.4615 18.2034C33.6914 18.2034 33.9037 18.081 34.019 17.8822C34.2361 17.5077 34.6383 17.2751 35.0686 17.2751C35.4988 17.2751 35.901 17.5077 36.1182 17.8823C36.2336 18.081 36.4459 18.2034 36.6757 18.2034C36.9056 18.2034 37.118 18.081 37.2333 17.8822C37.4504 17.5077 37.8525 17.2751 38.2828 17.2751C38.713 17.2751 39.1152 17.5077 39.3325 17.8823C39.4477 18.081 39.6602 18.2034 39.89 18.2034C40.1198 18.2034 40.3322 18.081 40.4475 17.8822C40.6646 17.5077 41.0668 17.2751 41.4971 17.2751C42.1663 17.2751 42.7108 17.8195 42.7108 18.4888C42.7108 19.1581 42.1663 19.7025 41.4971 19.7025C41.0668 19.7025 40.6646 19.4699 40.4475 19.0954C40.3322 18.8967 40.1198 18.7742 39.89 18.7742C39.6602 18.7742 39.4477 18.8966 39.3325 19.0953C39.1152 19.4699 38.713 19.7025 38.2828 19.7025C37.8525 19.7025 37.4504 19.4699 37.2333 19.0954C37.118 18.8967 36.9056 18.7742 36.6757 18.7742C36.4459 18.7742 36.2335 18.8966 36.1182 19.0953C35.901 19.4699 35.4988 19.7025 35.0686 19.7025C34.6383 19.7025 34.2361 19.4699 34.019 19.0954C33.9037 18.8967 33.6914 18.7742 33.4615 18.7742C33.2317 18.7742 33.0192 18.8966 32.904 19.0953C32.6868 19.4699 32.2846 19.7025 31.8544 19.7025C31.4241 19.7025 31.0219 19.4699 30.8048 19.0954C30.6895 18.8967 30.4771 18.7742 30.2472 18.7742C30.0175 18.7742 29.805 18.8966 29.6898 19.0953C29.4725 19.4699 29.0703 19.7025 28.6401 19.7025C28.2098 19.7025 27.8077 19.4699 27.5906 19.0954C27.4752 18.8967 27.2629 18.7742 27.033 18.7742C26.8031 18.7742 26.5908 18.8966 26.4755 19.0954C26.3486 19.3142 26.1583 19.4841 25.9363 19.5879C24.4222 18.9847 22.7569 18.6492 21.0094 18.6458C21.0026 18.5943 20.998 18.5422 20.998 18.4888C20.998 17.8195 21.5424 17.2751 22.2117 17.2751ZM8.39163 23.3786H10.8635C10.6095 23.6949 10.3712 24.0227 10.1518 24.3624H8.39163V23.3786ZM5.7328 27.1746H3.5567C3.22145 27.1746 2.94216 27.4316 2.9144 27.7657C2.87968 28.184 2.52355 28.5116 2.10375 28.5116C1.65455 28.5116 1.28915 28.1462 1.28915 27.697C1.28915 27.4535 1.397 27.2244 1.58512 27.0688C1.7331 26.9463 1.81878 26.7643 1.81878 26.5722C1.81878 26.38 1.7331 26.198 1.58512 26.0755C1.397 25.9199 1.28915 25.691 1.28915 25.4473C1.28915 24.9981 1.65455 24.6327 2.10375 24.6327C2.52355 24.6327 2.87968 24.9603 2.9144 25.3786C2.94216 25.7127 3.22145 25.9697 3.5567 25.9697H5.73289V27.1746H5.7328ZM5.95332 24.6808H4.06063C3.82362 24.082 3.31779 23.6184 2.70093 23.4327C2.67343 23.3505 2.65873 23.2635 2.65873 23.1745C2.65873 22.7253 3.02414 22.3599 3.47334 22.3599C3.89314 22.3599 4.24927 22.6876 4.28407 23.1058C4.31183 23.4399 4.59113 23.697 4.92637 23.697H7.10256V24.3624H6.64383C6.3678 24.3624 6.12055 24.4863 5.95332 24.6808ZM10.433 33.7062H7.5796C7.57848 33.6835 7.57728 33.6608 7.57728 33.6379C7.57728 32.8499 8.21829 32.2089 9.00625 32.2089C9.79421 32.2089 10.4352 32.8499 10.4352 33.6379C10.4353 33.6608 10.434 33.6835 10.433 33.7062ZM30.3116 33.7062H28.0679C28.0668 33.6835 28.0656 33.6608 28.0656 33.6379C28.0656 32.8499 28.7066 32.2089 29.4946 32.2089C29.8885 32.2089 30.2459 32.3692 30.5046 32.6279C30.3791 32.9404 30.3093 33.281 30.3093 33.6379C30.3092 33.6608 30.311 33.6833 30.3116 33.7062ZM29.4946 30.9197C27.9959 30.9197 26.7765 32.139 26.7765 33.6378C26.7765 33.6607 26.7782 33.6833 26.7788 33.7061H11.722C11.7226 33.6832 11.7244 33.6607 11.7244 33.6378C11.7244 32.3649 10.8446 31.294 9.66135 31C9.64915 30.8017 9.64227 30.6024 9.64227 30.4021C9.64227 30.3364 9.64322 30.2709 9.64451 30.2054L16.2366 32.4439C16.6807 32.5948 17.1349 32.6691 17.5847 32.6691C18.4345 32.6691 19.2687 32.4037 19.9891 31.8877C21.0906 31.0983 21.7223 29.8685 21.7223 28.5133C21.7223 28.0288 21.6392 27.5535 21.4753 27.1005C21.3541 26.7658 20.9846 26.5927 20.6498 26.7139C20.3151 26.835 20.142 27.2046 20.2632 27.5393C20.3761 27.8512 20.4334 28.1789 20.4334 28.5132C20.4334 29.4475 19.9978 30.2955 19.2383 30.8396C18.479 31.3838 17.5359 31.5235 16.6512 31.2232L7.02195 27.9534V25.6514H17.5715C17.8948 25.6514 18.2133 25.7056 18.5182 25.8125C18.8543 25.9304 19.222 25.7534 19.3397 25.4173C19.4575 25.0813 19.2805 24.7137 18.9446 24.5959C18.5023 24.4409 18.0403 24.3623 17.5715 24.3623H11.7273C13.7835 21.6855 17.1654 19.9344 20.9831 19.9344C27.2364 19.9344 32.3238 24.6302 32.3238 30.4021C32.3238 30.6083 32.3166 30.8135 32.3036 31.0178C31.9142 31.1257 31.5596 31.3183 31.2609 31.5745C30.7855 31.1668 30.1685 30.9197 29.4946 30.9197ZM34.454 33.7062H31.6006C31.5995 33.6835 31.5983 33.6608 31.5983 33.6379C31.5983 32.8499 32.2393 32.2089 33.0272 32.2089C33.8152 32.2089 34.4563 32.8499 34.4563 33.6379C34.4563 33.6608 34.4551 33.6835 34.454 33.7062ZM34.8583 31.2197C34.7555 31.2725 34.6558 31.3304 34.5611 31.3954C34.2745 31.1988 33.9482 31.0568 33.5974 30.9815C33.6073 30.7892 33.6128 30.5961 33.6128 30.4022C33.6128 30.1646 33.6029 29.9292 33.5878 29.695H34.8583V31.2197ZM37.5226 33.6378C37.5226 33.6607 37.5214 33.6834 37.5203 33.7061H35.743C35.7436 33.6832 35.7454 33.6607 35.7454 33.6378C35.7454 33.181 35.6316 32.7505 35.4317 32.3723C35.6296 32.2679 35.8547 32.2088 36.0937 32.2088C36.8816 32.2088 37.5226 32.8498 37.5226 33.6378ZM37.5226 27.7184C37.5226 28.0976 37.2142 28.406 36.835 28.406H33.4281C33.33 27.8757 33.1959 27.3568 33.0241 26.8531H37.5226V27.7184ZM42.7109 25.564H32.4932C32.2456 25.0557 31.9601 24.5668 31.6404 24.0999H34.375C34.731 24.0999 35.0195 23.8113 35.0195 23.4554C35.0195 23.0994 34.731 22.8109 34.375 22.8109H30.6187C30.0022 22.1339 29.3059 21.5221 28.5421 20.9893C28.5747 20.9906 28.6074 20.9916 28.6401 20.9916C29.2345 20.9916 29.8024 20.7771 30.2472 20.4044C30.692 20.7771 31.26 20.9916 31.8544 20.9916C32.4487 20.9916 33.0167 20.7771 33.4615 20.4044C33.9062 20.7771 34.4743 20.9916 35.0686 20.9916C35.6629 20.9916 36.2309 20.7771 36.6757 20.4044C37.1204 20.7771 37.6885 20.9916 38.2828 20.9916C38.8772 20.9916 39.4451 20.7771 39.89 20.4044C40.105 20.5846 40.3489 20.7274 40.6106 20.8272L39.6508 22.8109H37.3828C37.0268 22.8109 36.7383 23.0994 36.7383 23.4554C36.7383 23.8113 37.0268 24.0999 37.3828 24.0999H42.7109V25.564Z" fill="#363853"/>
</g>
</g>
<defs>
<clipPath id="clip0_0_196">
<rect width="44" height="44" fill="white"/>
</clipPath>
<clipPath id="clip1_0_196">
<rect width="44" height="44" fill="white"/>
</clipPath>
</defs>
</svg>
