<svg width="140" height="44" viewBox="0 0 116 44" fill="none" xmlns="http://www.w3.org/2000/svg">
<path d="M54.2 29C54.0533 29 53.94 28.96 53.86 28.88C53.78 28.7867 53.74 28.6733 53.74 28.54V15.48C53.74 15.3333 53.78 15.22 53.86 15.14C53.94 15.0467 54.0533 15 54.2 15H59.68C60.68 15 61.4933 15.1667 62.12 15.5C62.76 15.82 63.2267 16.26 63.52 16.82C63.8267 17.38 63.98 18.0067 63.98 18.7C63.98 19.2467 63.8867 19.72 63.7 20.12C63.5267 20.5067 63.3067 20.8267 63.04 21.08C62.7733 21.32 62.5133 21.5067 62.26 21.64C62.78 21.8933 63.24 22.3067 63.64 22.88C64.0533 23.4533 64.26 24.1467 64.26 24.96C64.26 25.6933 64.0933 26.3667 63.76 26.98C63.4267 27.5933 62.9267 28.0867 62.26 28.46C61.6067 28.82 60.7933 29 59.82 29H54.2ZM55.7 27.38H59.56C60.4267 27.38 61.0933 27.1467 61.56 26.68C62.0267 26.2133 62.26 25.64 62.26 24.96C62.26 24.2533 62.0267 23.6733 61.56 23.22C61.0933 22.7533 60.4267 22.52 59.56 22.52H55.7V27.38ZM55.7 20.92H59.38C60.2333 20.92 60.88 20.7267 61.32 20.34C61.76 19.94 61.98 19.4 61.98 18.72C61.98 18.04 61.76 17.52 61.32 17.16C60.88 16.8 60.2333 16.62 59.38 16.62H55.7V20.92ZM70.7194 29.2C69.866 29.2 69.1394 29.0133 68.5394 28.64C67.9527 28.2533 67.506 27.72 67.1994 27.04C66.8927 26.36 66.7394 25.58 66.7394 24.7V19.06C66.7394 18.9267 66.7794 18.82 66.8594 18.74C66.9527 18.6467 67.066 18.6 67.1994 18.6H68.1994C68.3327 18.6 68.4394 18.6467 68.5194 18.74C68.6127 18.82 68.6594 18.9267 68.6594 19.06V24.6C68.6594 26.5867 69.526 27.58 71.2594 27.58C72.086 27.58 72.746 27.32 73.2394 26.8C73.746 26.2667 73.9994 25.5333 73.9994 24.6V19.06C73.9994 18.9267 74.0394 18.82 74.1194 18.74C74.2127 18.6467 74.326 18.6 74.4594 18.6H75.4394C75.586 18.6 75.6994 18.6467 75.7794 18.74C75.8594 18.82 75.8994 18.9267 75.8994 19.06V28.54C75.8994 28.6733 75.8594 28.7867 75.7794 28.88C75.6994 28.96 75.586 29 75.4394 29H74.5194C74.386 29 74.2727 28.96 74.1794 28.88C74.0994 28.7867 74.0594 28.6733 74.0594 28.54V27.66C73.6994 28.1267 73.2594 28.5 72.7394 28.78C72.2327 29.06 71.5594 29.2 70.7194 29.2ZM79.3306 29C79.1973 29 79.084 28.96 78.9906 28.88C78.9106 28.7867 78.8706 28.6733 78.8706 28.54V19.08C78.8706 18.9467 78.9106 18.8333 78.9906 18.74C79.084 18.6467 79.1973 18.6 79.3306 18.6H80.2506C80.384 18.6 80.4973 18.6467 80.5906 18.74C80.684 18.8333 80.7306 18.9467 80.7306 19.08V19.96C80.9973 19.5067 81.364 19.1667 81.8306 18.94C82.2973 18.7133 82.8573 18.6 83.5106 18.6H84.3106C84.444 18.6 84.5506 18.6467 84.6306 18.74C84.7106 18.82 84.7506 18.9267 84.7506 19.06V19.88C84.7506 20.0133 84.7106 20.12 84.6306 20.2C84.5506 20.28 84.444 20.32 84.3106 20.32H83.1106C82.3906 20.32 81.824 20.5333 81.4106 20.96C80.9973 21.3733 80.7906 21.94 80.7906 22.66V28.54C80.7906 28.6733 80.744 28.7867 80.6506 28.88C80.5573 28.96 80.444 29 80.3106 29H79.3306ZM90.5134 33.4C89.6068 33.4 88.8601 33.28 88.2734 33.04C87.7001 32.8 87.2468 32.5067 86.9134 32.16C86.5934 31.8267 86.3601 31.4867 86.2134 31.14C86.0801 30.8067 86.0068 30.54 85.9934 30.34C85.9801 30.2067 86.0201 30.0933 86.1134 30C86.2201 29.9067 86.3334 29.86 86.4534 29.86H87.4134C87.5334 29.86 87.6334 29.8867 87.7134 29.94C87.7934 29.9933 87.8601 30.1067 87.9134 30.28C87.9934 30.48 88.1134 30.7 88.2734 30.94C88.4334 31.1933 88.6801 31.4067 89.0134 31.58C89.3468 31.7667 89.8134 31.86 90.4134 31.86C91.0401 31.86 91.5668 31.7733 91.9934 31.6C92.4201 31.44 92.7401 31.1467 92.9534 30.72C93.1801 30.3067 93.2934 29.7333 93.2934 29V27.64C92.9734 28.0533 92.5534 28.4 92.0334 28.68C91.5134 28.9467 90.8601 29.08 90.0734 29.08C89.3268 29.08 88.6868 28.9533 88.1534 28.7C87.6201 28.4333 87.1801 28.08 86.8334 27.64C86.5001 27.1867 86.2468 26.6733 86.0734 26.1C85.9134 25.5267 85.8201 24.9267 85.7934 24.3C85.7801 23.9267 85.7801 23.56 85.7934 23.2C85.8201 22.5733 85.9134 21.9733 86.0734 21.4C86.2468 20.8267 86.5001 20.3133 86.8334 19.86C87.1801 19.4067 87.6201 19.0533 88.1534 18.8C88.6868 18.5333 89.3268 18.4 90.0734 18.4C90.8734 18.4 91.5334 18.5533 92.0534 18.86C92.5868 19.1533 93.0201 19.5133 93.3534 19.94V19.08C93.3534 18.9467 93.3934 18.8333 93.4734 18.74C93.5668 18.6467 93.6801 18.6 93.8134 18.6H94.7334C94.8668 18.6 94.9801 18.6467 95.0734 18.74C95.1668 18.8333 95.2134 18.9467 95.2134 19.08V28.78C95.2134 29.6733 95.0601 30.4667 94.7534 31.16C94.4601 31.8533 93.9668 32.4 93.2734 32.8C92.5934 33.2 91.6734 33.4 90.5134 33.4ZM90.4734 27.48C91.1401 27.48 91.6734 27.3267 92.0734 27.02C92.4868 26.7133 92.7868 26.3267 92.9734 25.86C93.1734 25.3933 93.2801 24.92 93.2934 24.44C93.3068 24.2533 93.3134 24.0267 93.3134 23.76C93.3134 23.48 93.3068 23.2467 93.2934 23.06C93.2801 22.58 93.1734 22.1067 92.9734 21.64C92.7868 21.1733 92.4868 20.7867 92.0734 20.48C91.6734 20.1733 91.1401 20.02 90.4734 20.02C89.8068 20.02 89.2734 20.1733 88.8734 20.48C88.4734 20.7733 88.1868 21.1667 88.0134 21.66C87.8401 22.14 87.7401 22.66 87.7134 23.22C87.7001 23.5667 87.7001 23.92 87.7134 24.28C87.7401 24.84 87.8401 25.3667 88.0134 25.86C88.1868 26.34 88.4734 26.7333 88.8734 27.04C89.2734 27.3333 89.8068 27.48 90.4734 27.48ZM102.327 29.2C100.954 29.2 99.8604 28.78 99.047 27.94C98.2337 27.0867 97.787 25.9267 97.707 24.46C97.6937 24.2867 97.687 24.0667 97.687 23.8C97.687 23.52 97.6937 23.2933 97.707 23.12C97.7604 22.1733 97.9804 21.3467 98.367 20.64C98.7537 19.92 99.2804 19.3667 99.947 18.98C100.627 18.5933 101.42 18.4 102.327 18.4C103.34 18.4 104.187 18.6133 104.867 19.04C105.56 19.4667 106.087 20.0733 106.447 20.86C106.807 21.6467 106.987 22.5667 106.987 23.62V23.96C106.987 24.1067 106.94 24.22 106.847 24.3C106.767 24.38 106.66 24.42 106.527 24.42H99.607C99.607 24.4333 99.607 24.46 99.607 24.5C99.607 24.54 99.607 24.5733 99.607 24.6C99.6337 25.1467 99.7537 25.66 99.967 26.14C100.18 26.6067 100.487 26.9867 100.887 27.28C101.287 27.5733 101.767 27.72 102.327 27.72C102.807 27.72 103.207 27.6467 103.527 27.5C103.847 27.3533 104.107 27.1933 104.307 27.02C104.507 26.8333 104.64 26.6933 104.707 26.6C104.827 26.4267 104.92 26.3267 104.987 26.3C105.054 26.26 105.16 26.24 105.307 26.24H106.267C106.4 26.24 106.507 26.28 106.587 26.36C106.68 26.4267 106.72 26.5267 106.707 26.66C106.694 26.86 106.587 27.1067 106.387 27.4C106.187 27.68 105.9 27.96 105.527 28.24C105.154 28.52 104.7 28.7533 104.167 28.94C103.634 29.1133 103.02 29.2 102.327 29.2ZM99.607 23.04H105.087V22.98C105.087 22.38 104.974 21.8467 104.747 21.38C104.534 20.9133 104.22 20.5467 103.807 20.28C103.394 20 102.9 19.86 102.327 19.86C101.754 19.86 101.26 20 100.847 20.28C100.447 20.5467 100.14 20.9133 99.927 21.38C99.7137 21.8467 99.607 22.38 99.607 22.98V23.04ZM109.838 29C109.705 29 109.592 28.96 109.498 28.88C109.418 28.7867 109.378 28.6733 109.378 28.54V19.08C109.378 18.9467 109.418 18.8333 109.498 18.74C109.592 18.6467 109.705 18.6 109.838 18.6H110.758C110.892 18.6 111.005 18.6467 111.098 18.74C111.192 18.8333 111.238 18.9467 111.238 19.08V19.96C111.505 19.5067 111.872 19.1667 112.338 18.94C112.805 18.7133 113.365 18.6 114.018 18.6H114.818C114.952 18.6 115.058 18.6467 115.138 18.74C115.218 18.82 115.258 18.9267 115.258 19.06V19.88C115.258 20.0133 115.218 20.12 115.138 20.2C115.058 20.28 114.952 20.32 114.818 20.32H113.618C112.898 20.32 112.332 20.5333 111.918 20.96C111.505 21.3733 111.298 21.94 111.298 22.66V28.54C111.298 28.6733 111.252 28.7867 111.158 28.88C111.065 28.96 110.952 29 110.818 29H109.838Z" fill="#363853"/>
<g clip-path="url(#clip0_0_159)">
<path d="M44 20.3359C44 18.6467 42.9108 17.2079 41.3982 16.6825C41.1658 11.4417 39.2092 7.41987 35.573 4.71723C32.2543 2.25065 27.6878 1 22 1C16.3122 1 11.7457 2.25065 8.42703 4.71731C4.79084 7.41987 2.83422 11.4418 2.60176 16.6826C1.08917 17.2079 0 18.6467 0 20.3359C0 21.3257 0.374172 22.2293 0.987852 22.9141C0.374172 23.5988 0 24.5024 0 25.4922C0 27.1918 1.10258 28.6378 2.6296 29.1551C3.18252 35.0454 8.18967 39.6719 14.2656 39.6719H29.7344C35.8103 39.6719 40.8175 35.0454 41.3704 29.1551C42.8974 28.6378 44 27.1918 44 25.4922C44 24.5024 43.6258 23.5988 43.0121 22.9141C43.6258 22.2293 44 21.3257 44 20.3359ZM22 3.57812C29.3933 3.57812 38.1513 5.85719 38.8034 16.4688H5.19655C5.84873 5.85719 14.6067 3.57812 22 3.57812ZM3.86719 19.0469H40.1328C40.8436 19.0469 41.4219 19.6251 41.4219 20.3359C41.4219 21.0467 40.8436 21.625 40.1328 21.625H3.86719C3.1564 21.625 2.57812 21.0467 2.57812 20.3359C2.57812 19.6251 3.1564 19.0469 3.86719 19.0469ZM29.7344 37.0938H14.2656C9.68456 37.0938 5.88302 33.7265 5.24958 29.3594H6.44531C7.30709 29.3594 7.57943 29.6525 8.12187 30.2366C8.78857 30.9545 9.70166 31.9375 11.6875 31.9375C13.6874 31.9375 14.5766 30.9444 15.226 30.2193C15.7387 29.6468 15.996 29.3594 16.8438 29.3594C17.6915 29.3594 17.9488 29.6468 18.4615 30.2193C19.1109 30.9444 20.0001 31.9375 22 31.9375C23.9999 31.9375 24.8891 30.9444 25.5385 30.2193C26.0512 29.6468 26.3085 29.3594 27.1562 29.3594C28.004 29.3594 28.2613 29.6468 28.774 30.2193C29.4234 30.9444 30.3126 31.9375 32.3125 31.9375C34.3124 31.9375 35.2016 30.9444 35.851 30.2193C36.3637 29.6468 36.621 29.3594 37.4688 29.3594H38.7504C38.117 33.7265 34.3154 37.0938 29.7344 37.0938ZM40.1328 26.7812H37.4688C35.4689 26.7812 34.5796 27.7743 33.9303 28.4995C33.4176 29.072 33.1603 29.3594 32.3125 29.3594C31.4647 29.3594 31.2074 29.072 30.6947 28.4995C30.0454 27.7743 29.1561 26.7812 27.1562 26.7812C25.1564 26.7812 24.2671 27.7743 23.6178 28.4995C23.1051 29.072 22.8478 29.3594 22 29.3594C21.1522 29.3594 20.8949 29.072 20.3822 28.4995C19.7329 27.7743 18.8436 26.7812 16.8438 26.7812C14.8439 26.7812 13.9546 27.7743 13.3053 28.4995C12.7926 29.072 12.5353 29.3594 11.6875 29.3594C10.8257 29.3594 10.5534 29.0662 10.0109 28.4821C9.34424 27.7643 8.43116 26.7812 6.44531 26.7812H3.86719C3.1564 26.7812 2.57812 26.203 2.57812 25.4922C2.57812 24.7814 3.1564 24.2031 3.86719 24.2031H40.1328C40.8436 24.2031 41.4219 24.7814 41.4219 25.4922C41.4219 26.203 40.8436 26.7812 40.1328 26.7812Z" fill="#363853"/>
<path d="M14.2656 13.8906C14.9776 13.8906 15.5547 13.3135 15.5547 12.6016C15.5547 11.8896 14.9776 11.3125 14.2656 11.3125C13.5537 11.3125 12.9766 11.8896 12.9766 12.6016C12.9766 13.3135 13.5537 13.8906 14.2656 13.8906Z" fill="#363853"/>
<path d="M29.7344 13.8906C30.4463 13.8906 31.0234 13.3135 31.0234 12.6016C31.0234 11.8896 30.4463 11.3125 29.7344 11.3125C29.0224 11.3125 28.4453 11.8896 28.4453 12.6016C28.4453 13.3135 29.0224 13.8906 29.7344 13.8906Z" fill="#363853"/>
<path d="M24.5781 11.3125C25.2901 11.3125 25.8672 10.7354 25.8672 10.0234C25.8672 9.31151 25.2901 8.73438 24.5781 8.73438C23.8662 8.73438 23.2891 9.31151 23.2891 10.0234C23.2891 10.7354 23.8662 11.3125 24.5781 11.3125Z" fill="#363853"/>
<path d="M19.4219 8.73438C20.1338 8.73438 20.7109 8.15724 20.7109 7.44531C20.7109 6.73338 20.1338 6.15625 19.4219 6.15625C18.7099 6.15625 18.1328 6.73338 18.1328 7.44531C18.1328 8.15724 18.7099 8.73438 19.4219 8.73438Z" fill="#363853"/>
</g>
<defs>
<clipPath id="clip0_0_159">
<rect width="44" height="44" fill="white"/>
</clipPath>
</defs>
</svg>
