<svg width="140" height="44" viewBox="0 0 145 44" fill="none" xmlns="http://www.w3.org/2000/svg">
<path d="M59.24 29.2C58.08 29.2 57.1067 29.0267 56.32 28.68C55.5333 28.32 54.9267 27.86 54.5 27.3C54.0867 26.7267 53.8667 26.12 53.84 25.48C53.84 25.3733 53.88 25.28 53.96 25.2C54.0533 25.1067 54.16 25.06 54.28 25.06H55.3C55.46 25.06 55.58 25.1 55.66 25.18C55.74 25.26 55.7933 25.3533 55.82 25.46C55.8867 25.78 56.0467 26.1 56.3 26.42C56.5667 26.7267 56.9333 26.9867 57.4 27.2C57.88 27.4 58.4933 27.5 59.24 27.5C60.3867 27.5 61.2267 27.3 61.76 26.9C62.3067 26.4867 62.58 25.94 62.58 25.26C62.58 24.7933 62.4333 24.42 62.14 24.14C61.86 23.8467 61.4267 23.5867 60.84 23.36C60.2533 23.1333 59.4933 22.8867 58.56 22.62C57.5867 22.34 56.78 22.0333 56.14 21.7C55.5 21.3667 55.02 20.9533 54.7 20.46C54.3933 19.9667 54.24 19.34 54.24 18.58C54.24 17.86 54.4333 17.22 54.82 16.66C55.2067 16.0867 55.76 15.6333 56.48 15.3C57.2133 14.9667 58.1 14.8 59.14 14.8C59.9667 14.8 60.6867 14.9133 61.3 15.14C61.9267 15.3533 62.4467 15.6467 62.86 16.02C63.2733 16.38 63.5867 16.7733 63.8 17.2C64.0133 17.6133 64.1267 18.02 64.14 18.42C64.14 18.5133 64.1067 18.6067 64.04 18.7C63.9733 18.78 63.8667 18.82 63.72 18.82H62.66C62.5667 18.82 62.4667 18.7933 62.36 18.74C62.2667 18.6867 62.1933 18.5867 62.14 18.44C62.06 17.8933 61.7533 17.4333 61.22 17.06C60.6867 16.6867 59.9933 16.5 59.14 16.5C58.2733 16.5 57.5667 16.6667 57.02 17C56.4867 17.3333 56.22 17.8533 56.22 18.56C56.22 19.0133 56.3467 19.3933 56.6 19.7C56.8533 19.9933 57.2533 20.2533 57.8 20.48C58.3467 20.7067 59.06 20.9467 59.94 21.2C61.0067 21.4933 61.88 21.8067 62.56 22.14C63.24 22.46 63.74 22.8667 64.06 23.36C64.3933 23.84 64.56 24.46 64.56 25.22C64.56 26.06 64.34 26.78 63.9 27.38C63.46 27.9667 62.84 28.42 62.04 28.74C61.2533 29.0467 60.32 29.2 59.24 29.2ZM69.8214 29.2C69.1547 29.2 68.5481 29.0667 68.0014 28.8C67.4547 28.5333 67.0147 28.1733 66.6814 27.72C66.3481 27.2667 66.1814 26.7533 66.1814 26.18C66.1814 25.26 66.5547 24.5267 67.3014 23.98C68.0481 23.4333 69.0214 23.0733 70.2214 22.9L73.2014 22.48V21.9C73.2014 21.26 73.0147 20.76 72.6414 20.4C72.2814 20.04 71.6881 19.86 70.8614 19.86C70.2614 19.86 69.7747 19.98 69.4014 20.22C69.0414 20.46 68.7881 20.7667 68.6414 21.14C68.5614 21.34 68.4214 21.44 68.2214 21.44H67.3214C67.1747 21.44 67.0614 21.4 66.9814 21.32C66.9147 21.2267 66.8814 21.12 66.8814 21C66.8814 20.8 66.9547 20.5533 67.1014 20.26C67.2614 19.9667 67.5014 19.68 67.8214 19.4C68.1414 19.12 68.5481 18.8867 69.0414 18.7C69.5481 18.5 70.1614 18.4 70.8814 18.4C71.6814 18.4 72.3547 18.5067 72.9014 18.72C73.4481 18.92 73.8747 19.1933 74.1814 19.54C74.5014 19.8867 74.7281 20.28 74.8614 20.72C75.0081 21.16 75.0814 21.6067 75.0814 22.06V28.54C75.0814 28.6733 75.0347 28.7867 74.9414 28.88C74.8614 28.96 74.7547 29 74.6214 29H73.7014C73.5547 29 73.4414 28.96 73.3614 28.88C73.2814 28.7867 73.2414 28.6733 73.2414 28.54V27.68C73.0681 27.92 72.8347 28.16 72.5414 28.4C72.2481 28.6267 71.8814 28.82 71.4414 28.98C71.0014 29.1267 70.4614 29.2 69.8214 29.2ZM70.2414 27.7C70.7881 27.7 71.2881 27.5867 71.7414 27.36C72.1947 27.12 72.5481 26.7533 72.8014 26.26C73.0681 25.7667 73.2014 25.1467 73.2014 24.4V23.84L70.8814 24.18C69.9347 24.3133 69.2214 24.54 68.7414 24.86C68.2614 25.1667 68.0214 25.56 68.0214 26.04C68.0214 26.4133 68.1281 26.7267 68.3414 26.98C68.5681 27.22 68.8481 27.4 69.1814 27.52C69.5281 27.64 69.8814 27.7 70.2414 27.7ZM78.4166 29C78.2832 29 78.1699 28.96 78.0766 28.88C77.9966 28.7867 77.9566 28.6733 77.9566 28.54V19.06C77.9566 18.9267 77.9966 18.82 78.0766 18.74C78.1699 18.6467 78.2832 18.6 78.4166 18.6H79.3566C79.4899 18.6 79.5966 18.6467 79.6766 18.74C79.7699 18.82 79.8166 18.9267 79.8166 19.06V19.94C80.1632 19.4867 80.5966 19.12 81.1166 18.84C81.6499 18.5467 82.3299 18.4 83.1566 18.4C84.0232 18.4 84.7566 18.5933 85.3566 18.98C85.9699 19.3533 86.4299 19.88 86.7366 20.56C87.0432 21.2267 87.1966 22.0067 87.1966 22.9V28.54C87.1966 28.6733 87.1566 28.7867 87.0766 28.88C86.9966 28.96 86.8899 29 86.7566 29H85.7566C85.6232 29 85.5099 28.96 85.4166 28.88C85.3366 28.7867 85.2966 28.6733 85.2966 28.54V23C85.2966 22.0667 85.0699 21.34 84.6166 20.82C84.1632 20.2867 83.4966 20.02 82.6166 20.02C81.7899 20.02 81.1232 20.2867 80.6166 20.82C80.1232 21.34 79.8766 22.0667 79.8766 23V28.54C79.8766 28.6733 79.8299 28.7867 79.7366 28.88C79.6566 28.96 79.5499 29 79.4166 29H78.4166ZM93.8855 29.2C93.1521 29.2 92.5188 29.0733 91.9855 28.82C91.4521 28.5533 91.0121 28.2 90.6655 27.76C90.3321 27.3067 90.0788 26.7933 89.9055 26.22C89.7455 25.6467 89.6521 25.04 89.6255 24.4C89.6121 24.1867 89.6055 23.9867 89.6055 23.8C89.6055 23.6133 89.6121 23.4133 89.6255 23.2C89.6521 22.5733 89.7455 21.9733 89.9055 21.4C90.0788 20.8267 90.3321 20.3133 90.6655 19.86C91.0121 19.4067 91.4521 19.0533 91.9855 18.8C92.5188 18.5333 93.1521 18.4 93.8855 18.4C94.6721 18.4 95.3255 18.54 95.8455 18.82C96.3655 19.1 96.7921 19.4467 97.1255 19.86V15.26C97.1255 15.1267 97.1655 15.02 97.2455 14.94C97.3388 14.8467 97.4521 14.8 97.5855 14.8H98.5455C98.6788 14.8 98.7855 14.8467 98.8655 14.94C98.9588 15.02 99.0055 15.1267 99.0055 15.26V28.54C99.0055 28.6733 98.9588 28.7867 98.8655 28.88C98.7855 28.96 98.6788 29 98.5455 29H97.6455C97.4988 29 97.3855 28.96 97.3055 28.88C97.2255 28.7867 97.1855 28.6733 97.1855 28.54V27.7C96.8521 28.1267 96.4188 28.4867 95.8855 28.78C95.3521 29.06 94.6855 29.2 93.8855 29.2ZM94.3055 27.58C94.9721 27.58 95.5055 27.4267 95.9055 27.12C96.3055 26.8133 96.6055 26.4267 96.8055 25.96C97.0055 25.48 97.1121 24.9933 97.1255 24.5C97.1388 24.2867 97.1455 24.0333 97.1455 23.74C97.1455 23.4333 97.1388 23.1733 97.1255 22.96C97.1121 22.4933 96.9988 22.0333 96.7855 21.58C96.5855 21.1267 96.2788 20.7533 95.8655 20.46C95.4655 20.1667 94.9455 20.02 94.3055 20.02C93.6255 20.02 93.0855 20.1733 92.6855 20.48C92.2855 20.7733 91.9988 21.1667 91.8255 21.66C91.6521 22.14 91.5521 22.66 91.5255 23.22C91.5121 23.6067 91.5121 23.9933 91.5255 24.38C91.5521 24.94 91.6521 25.4667 91.8255 25.96C91.9988 26.44 92.2855 26.8333 92.6855 27.14C93.0855 27.4333 93.6255 27.58 94.3055 27.58ZM104.74 29C104.567 29 104.433 28.96 104.34 28.88C104.247 28.7867 104.167 28.66 104.1 28.5L101.26 19.22C101.233 19.1533 101.22 19.0867 101.22 19.02C101.22 18.9 101.26 18.8 101.34 18.72C101.433 18.64 101.533 18.6 101.64 18.6H102.52C102.667 18.6 102.78 18.64 102.86 18.72C102.94 18.8 102.993 18.8733 103.02 18.94L105.24 26.48L107.62 19.02C107.647 18.9267 107.7 18.8333 107.78 18.74C107.873 18.6467 108.007 18.6 108.18 18.6H108.86C109.033 18.6 109.167 18.6467 109.26 18.74C109.353 18.8333 109.407 18.9267 109.42 19.02L111.8 26.48L114.02 18.94C114.033 18.8733 114.08 18.8 114.16 18.72C114.24 18.64 114.353 18.6 114.5 18.6H115.38C115.5 18.6 115.6 18.64 115.68 18.72C115.76 18.8 115.8 18.9 115.8 19.02C115.8 19.0867 115.787 19.1533 115.76 19.22L112.92 28.5C112.88 28.66 112.807 28.7867 112.7 28.88C112.607 28.96 112.467 29 112.28 29H111.5C111.327 29 111.18 28.96 111.06 28.88C110.953 28.7867 110.88 28.66 110.84 28.5L108.52 21.34L106.2 28.5C106.147 28.66 106.067 28.7867 105.96 28.88C105.853 28.96 105.707 29 105.52 29H104.74ZM118.475 29C118.342 29 118.228 28.96 118.135 28.88C118.055 28.7867 118.015 28.6733 118.015 28.54V19.06C118.015 18.9267 118.055 18.82 118.135 18.74C118.228 18.6467 118.342 18.6 118.475 18.6H119.435C119.568 18.6 119.675 18.6467 119.755 18.74C119.835 18.82 119.875 18.9267 119.875 19.06V28.54C119.875 28.6733 119.835 28.7867 119.755 28.88C119.675 28.96 119.568 29 119.435 29H118.475ZM118.315 16.66C118.182 16.66 118.068 16.62 117.975 16.54C117.895 16.4467 117.855 16.3333 117.855 16.2V15.12C117.855 14.9867 117.895 14.88 117.975 14.8C118.068 14.7067 118.182 14.66 118.315 14.66H119.575C119.708 14.66 119.815 14.7067 119.895 14.8C119.988 14.88 120.035 14.9867 120.035 15.12V16.2C120.035 16.3333 119.988 16.4467 119.895 16.54C119.815 16.62 119.708 16.66 119.575 16.66H118.315ZM127.059 29.2C126.112 29.2 125.292 29.02 124.599 28.66C123.919 28.2867 123.392 27.76 123.019 27.08C122.646 26.3867 122.446 25.56 122.419 24.6C122.406 24.4 122.399 24.1333 122.399 23.8C122.399 23.4667 122.406 23.2 122.419 23C122.446 22.04 122.646 21.22 123.019 20.54C123.392 19.8467 123.919 19.32 124.599 18.96C125.292 18.5867 126.112 18.4 127.059 18.4C127.832 18.4 128.492 18.5067 129.039 18.72C129.599 18.9333 130.059 19.2067 130.419 19.54C130.779 19.8733 131.046 20.2333 131.219 20.62C131.406 21.0067 131.506 21.3733 131.519 21.72C131.532 21.8533 131.492 21.96 131.399 22.04C131.306 22.12 131.192 22.16 131.059 22.16H130.099C129.966 22.16 129.866 22.1333 129.799 22.08C129.732 22.0133 129.666 21.9067 129.599 21.76C129.359 21.1067 129.032 20.6467 128.619 20.38C128.206 20.1133 127.692 19.98 127.079 19.98C126.279 19.98 125.626 20.2267 125.119 20.72C124.626 21.2133 124.359 22.0067 124.319 23.1C124.306 23.58 124.306 24.0467 124.319 24.5C124.359 25.6067 124.626 26.4067 125.119 26.9C125.626 27.38 126.279 27.62 127.079 27.62C127.692 27.62 128.206 27.4867 128.619 27.22C129.032 26.9533 129.359 26.4933 129.599 25.84C129.666 25.6933 129.732 25.5933 129.799 25.54C129.866 25.4733 129.966 25.44 130.099 25.44H131.059C131.192 25.44 131.306 25.48 131.399 25.56C131.492 25.64 131.532 25.7467 131.519 25.88C131.506 26.16 131.446 26.4467 131.339 26.74C131.232 27.0333 131.059 27.3333 130.819 27.64C130.592 27.9333 130.306 28.2 129.959 28.44C129.612 28.6667 129.192 28.8533 128.699 29C128.219 29.1333 127.672 29.2 127.059 29.2ZM134.374 29C134.241 29 134.127 28.96 134.034 28.88C133.954 28.7867 133.914 28.6733 133.914 28.54V15.26C133.914 15.1267 133.954 15.02 134.034 14.94C134.127 14.8467 134.241 14.8 134.374 14.8H135.374C135.521 14.8 135.634 14.8467 135.714 14.94C135.794 15.02 135.834 15.1267 135.834 15.26V19.92C136.194 19.4667 136.634 19.1 137.154 18.82C137.674 18.54 138.334 18.4 139.134 18.4C140.001 18.4 140.734 18.5933 141.334 18.98C141.947 19.3533 142.407 19.88 142.714 20.56C143.034 21.2267 143.194 22.0067 143.194 22.9V28.54C143.194 28.6733 143.154 28.7867 143.074 28.88C142.994 28.96 142.881 29 142.734 29H141.734C141.601 29 141.487 28.96 141.394 28.88C141.314 28.7867 141.274 28.6733 141.274 28.54V23C141.274 22.0667 141.047 21.34 140.594 20.82C140.141 20.2867 139.474 20.02 138.594 20.02C137.767 20.02 137.101 20.2867 136.594 20.82C136.087 21.34 135.834 22.0667 135.834 23V28.54C135.834 28.6733 135.794 28.7867 135.714 28.88C135.634 28.96 135.521 29 135.374 29H134.374Z" fill="#363853"/>
<g clip-path="url(#clip0_0_260)">
<path d="M41.7999 6.59989H40.3333V5.13319C40.3333 3.91821 39.3482 2.93319 38.1333 2.93319H36.3865L35.3253 0.810968C35.0787 0.312358 34.5697 -0.00234463 34.0134 -0.00011025H33C32.1899 -0.00011025 31.5333 0.656538 31.5333 1.46659V2.93328H23.4666C22.2515 2.93328 21.2666 3.91821 21.2666 5.13328V6.59989H19.8C18.585 6.59989 17.6 7.58491 17.6 8.79989V10.2666C17.6 11.0766 18.2566 11.7333 19.0666 11.7333H19.1444L20.0024 19.31L16.4692 18.4799C16.291 18.2057 16.1025 17.9336 15.8928 17.6666L14.6461 12.3008C14.5691 11.969 14.2739 11.734 13.9333 11.7332H9.71957C7.73149 9.98127 5.38187 9.18927 3.60941 9.71066L2.53287 8.53735C2.12605 8.09323 1.48693 7.94722 0.927647 8.17066C0.36742 8.38653 -0.00159544 8.92553 -4.85612e-05 9.52589V41.8146C0.00158425 43.0208 0.979038 43.9983 2.18526 43.9999H38.1333C38.5061 43.9996 38.8193 43.7198 38.8615 43.3494L42.4541 11.7332H42.5333C43.3434 11.7332 44 11.0765 44 10.2665V8.79989C44 7.58491 43.015 6.59989 41.7999 6.59989ZM33 1.46659H34.0134L34.7467 2.93328H33V1.46659ZM22.7333 5.13319C22.7333 4.72817 23.0616 4.39989 23.4666 4.39989H38.1333C38.5383 4.39989 38.8666 4.72817 38.8666 5.13319V6.59989H22.7333V5.13319ZM20.68 20.9732L20.7262 20.982L21.3187 21.1227L21.7162 25.2844C20.5645 24.469 19.1864 24.0346 17.7753 24.0421C18.0469 22.7482 17.9031 21.4017 17.3646 20.1943L20.68 20.9732ZM22.1129 27.4596L22.1224 27.4677C22.388 27.7134 22.6403 27.9734 22.8777 28.2464C23.7502 29.2199 24.3917 30.3778 24.7543 31.6337C24.8783 32.0711 24.9421 32.5233 24.9443 32.9779L18.095 25.5081C19.6184 25.6787 21.0369 26.3677 22.1129 27.4596ZM14.385 18.1397V18.1382C15.9676 19.9569 16.7046 22.1415 16.3548 23.6096L8.89165 15.4733C10.3972 15.1367 12.6866 16.1941 14.385 18.1397ZM13.3466 13.1999L13.9333 15.6969C13.344 15.237 12.7017 14.8495 12.0201 14.5427C11.7429 14.0738 11.4329 13.6251 11.0924 13.1999H13.3466ZM9.66019 13.7455H9.66311C9.72395 13.8152 9.77388 13.8922 9.83249 13.9655C9.14404 13.9021 8.45087 14.0185 7.82095 14.3036L4.80618 11.016C6.28026 11.0373 8.2038 12.0742 9.66019 13.7455ZM30.737 42.1025C30.6235 42.3636 30.3661 42.5328 30.0813 42.5333H23.4666H2.18526C1.78831 42.5333 1.46656 42.2115 1.46656 41.8146L1.45333 9.53328L16.1721 25.5815V25.5852L24.8166 35.0093L24.8262 35.0203L29.568 40.1917C29.5848 40.2137 29.6024 40.2357 29.6215 40.257L30.6049 41.3291C30.7987 41.5377 30.8506 41.8413 30.737 42.1025ZM26.1976 34.3448C26.3318 33.9069 26.4 33.4513 26.4 32.9933C26.7852 33.3182 27.1442 33.673 27.4736 34.0544C27.8832 34.5225 28.2469 35.0289 28.5596 35.5666C28.9879 36.2867 29.2906 37.0742 29.455 37.8957L26.1976 34.3448ZM37.4784 42.5333H32.1361C32.4108 41.7734 32.2366 40.9238 31.6851 40.3333L30.9466 39.5266C31.0915 38.299 30.8935 37.0552 30.3746 35.9333H38.2286L37.4784 42.5333ZM38.3951 34.4666H29.5951C29.2941 33.9836 28.9568 33.5242 28.586 33.0923C27.8643 32.2546 27.0171 31.534 26.0743 30.956C25.6434 29.5974 24.931 28.3447 23.9836 27.2798C23.7636 27.0305 23.5436 26.798 23.3126 26.5743L22.7333 20.4635C22.7035 20.1509 22.4779 19.892 22.1723 19.8197L21.5226 19.6657L21.3686 18.3332H40.2292L38.3951 34.4666ZM40.3956 16.8666H21.2021L20.6213 11.7333H40.9786L40.3956 16.8666ZM42.5333 10.2666H19.0666V8.79989C19.0666 8.39487 19.3949 8.06658 19.8 8.06658H41.7999C42.205 8.06658 42.5333 8.39487 42.5333 8.79989V10.2666Z" fill="#363853"/>
<path d="M31.1006 32.2667C31.1423 32.2667 31.1834 32.2608 31.2245 32.2594C31.2355 32.2594 31.2465 32.2667 31.2575 32.2667C31.2943 32.2644 31.3308 32.2593 31.3667 32.2513C32.5147 32.1738 33.5724 31.6017 34.2655 30.6834C35.1895 29.3853 35.4536 27.7299 34.9798 26.2087C34.8778 25.8288 34.7847 25.4563 34.6945 25.0962C34.1225 22.8031 33.5762 20.6404 31.2596 20.543C31.2362 20.543 31.2142 20.5386 31.1907 20.5386C31.1672 20.5386 31.1328 20.5334 31.1005 20.5334C28.5089 20.5334 26.3998 23.1654 26.3998 26.4001C26.3998 29.6349 28.5089 32.2667 31.1006 32.2667ZM31.6682 22.11C32.4264 22.4077 32.7601 23.4014 33.2719 25.451C33.3636 25.8177 33.4589 26.202 33.5652 26.5914C33.9163 27.6723 33.7448 28.8549 33.101 29.7916C32.8673 30.0981 32.5682 30.3486 32.2254 30.5249C32.2006 29.2643 31.9524 28.0181 31.4921 26.8443C31.4188 26.6155 31.3454 26.3947 31.2809 26.1843C30.8542 24.7962 31.3542 22.9973 31.6682 22.11ZM30.0922 22.22C29.615 23.6363 29.5416 25.1577 29.8802 26.6134C29.9477 26.8334 30.0225 27.0614 30.1002 27.2983C30.4669 28.4174 30.9069 29.7704 30.7272 30.7662C29.1198 30.5154 27.8665 28.6542 27.8665 26.4C27.8666 24.453 28.8016 22.8 30.0922 22.22Z" fill="#363853"/>
<path d="M3.88139 38.563L3.36293 39.0815C3.17232 39.2657 3.09584 39.5383 3.16296 39.7947C3.23007 40.0511 3.43031 40.2514 3.68666 40.3184C3.9431 40.3855 4.21569 40.309 4.39985 40.1184L4.91831 39.6C5.19624 39.3122 5.19228 38.8548 4.90938 38.572C4.62656 38.2891 4.16911 38.2851 3.88139 38.563Z" fill="#363853"/>
<path d="M10.8929 33.6264C11.1794 33.3399 11.1794 32.8753 10.8929 32.5887C10.6064 32.3021 10.1418 32.3021 9.85518 32.5887L9.33672 33.1071C9.15135 33.2923 9.07891 33.5624 9.14663 33.8155C9.21434 34.0687 9.412 34.2664 9.66509 34.3343C9.91817 34.4022 10.1883 34.3299 10.3736 34.1447L10.8929 33.6264Z" fill="#363853"/>
<path d="M4.39994 31.7482L3.88148 32.2667C3.69087 32.4509 3.61439 32.7234 3.6815 32.9799C3.74862 33.2362 3.94885 33.4365 4.20521 33.5036C4.46164 33.5707 4.73424 33.4942 4.9184 33.3036L5.43686 32.7851C5.71478 32.4974 5.71083 32.04 5.42793 31.7572C5.1451 31.4743 4.68766 31.4703 4.39994 31.7482Z" fill="#363853"/>
<path d="M4.39994 26.6149L3.88148 27.1333C3.69087 27.3175 3.61439 27.5901 3.6815 27.8465C3.74862 28.1029 3.94885 28.3031 4.20521 28.3702C4.46164 28.4373 4.73424 28.3609 4.9184 28.1702L5.43686 27.6518C5.71478 27.3641 5.71083 26.9066 5.42793 26.6238C5.1451 26.341 4.68766 26.337 4.39994 26.6149Z" fill="#363853"/>
<path d="M11 38.563L10.4815 39.0815C10.2909 39.2657 10.2144 39.5383 10.2816 39.7947C10.3487 40.0511 10.5489 40.2514 10.8053 40.3184C11.0617 40.3855 11.3343 40.309 11.5185 40.1184L12.0369 39.6C12.3148 39.3122 12.3109 38.8548 12.028 38.572C11.7452 38.2891 11.2877 38.2851 11 38.563Z" fill="#363853"/>
<path d="M16.3481 38.5631L15.8297 39.0816C15.6391 39.2658 15.5626 39.5384 15.6297 39.7948C15.6968 40.0512 15.897 40.2515 16.1534 40.3185C16.4098 40.3856 16.6824 40.3091 16.8666 40.1185L17.385 39.6001C17.663 39.3123 17.659 38.8549 17.3761 38.5721C17.0932 38.2893 16.6358 38.2852 16.3481 38.5631Z" fill="#363853"/>
</g>
<defs>
<clipPath id="clip0_0_260">
<rect width="44" height="44" fill="white"/>
</clipPath>
</defs>
</svg>
