<svg width="140" height="44" viewBox="0 0 140 44" fill="none" xmlns="http://www.w3.org/2000/svg">
<path d="M58.24 29.2C57.08 29.2 56.1067 29.0267 55.32 28.68C54.5333 28.32 53.9267 27.86 53.5 27.3C53.0867 26.7267 52.8667 26.12 52.84 25.48C52.84 25.3733 52.88 25.28 52.96 25.2C53.0533 25.1067 53.16 25.06 53.28 25.06H54.3C54.46 25.06 54.58 25.1 54.66 25.18C54.74 25.26 54.7933 25.3533 54.82 25.46C54.8867 25.78 55.0467 26.1 55.3 26.42C55.5667 26.7267 55.9333 26.9867 56.4 27.2C56.88 27.4 57.4933 27.5 58.24 27.5C59.3867 27.5 60.2267 27.3 60.76 26.9C61.3067 26.4867 61.58 25.94 61.58 25.26C61.58 24.7933 61.4333 24.42 61.14 24.14C60.86 23.8467 60.4267 23.5867 59.84 23.36C59.2533 23.1333 58.4933 22.8867 57.56 22.62C56.5867 22.34 55.78 22.0333 55.14 21.7C54.5 21.3667 54.02 20.9533 53.7 20.46C53.3933 19.9667 53.24 19.34 53.24 18.58C53.24 17.86 53.4333 17.22 53.82 16.66C54.2067 16.0867 54.76 15.6333 55.48 15.3C56.2133 14.9667 57.1 14.8 58.14 14.8C58.9667 14.8 59.6867 14.9133 60.3 15.14C60.9267 15.3533 61.4467 15.6467 61.86 16.02C62.2733 16.38 62.5867 16.7733 62.8 17.2C63.0133 17.6133 63.1267 18.02 63.14 18.42C63.14 18.5133 63.1067 18.6067 63.04 18.7C62.9733 18.78 62.8667 18.82 62.72 18.82H61.66C61.5667 18.82 61.4667 18.7933 61.36 18.74C61.2667 18.6867 61.1933 18.5867 61.14 18.44C61.06 17.8933 60.7533 17.4333 60.22 17.06C59.6867 16.6867 58.9933 16.5 58.14 16.5C57.2733 16.5 56.5667 16.6667 56.02 17C55.4867 17.3333 55.22 17.8533 55.22 18.56C55.22 19.0133 55.3467 19.3933 55.6 19.7C55.8533 19.9933 56.2533 20.2533 56.8 20.48C57.3467 20.7067 58.06 20.9467 58.94 21.2C60.0067 21.4933 60.88 21.8067 61.56 22.14C62.24 22.46 62.74 22.8667 63.06 23.36C63.3933 23.84 63.56 24.46 63.56 25.22C63.56 26.06 63.34 26.78 62.9 27.38C62.46 27.9667 61.84 28.42 61.04 28.74C60.2533 29.0467 59.32 29.2 58.24 29.2ZM70.0614 29.2C68.6881 29.2 67.5947 28.78 66.7814 27.94C65.9681 27.0867 65.5214 25.9267 65.4414 24.46C65.4281 24.2867 65.4214 24.0667 65.4214 23.8C65.4214 23.52 65.4281 23.2933 65.4414 23.12C65.4947 22.1733 65.7147 21.3467 66.1014 20.64C66.4881 19.92 67.0147 19.3667 67.6814 18.98C68.3614 18.5933 69.1547 18.4 70.0614 18.4C71.0747 18.4 71.9214 18.6133 72.6014 19.04C73.2947 19.4667 73.8214 20.0733 74.1814 20.86C74.5414 21.6467 74.7214 22.5667 74.7214 23.62V23.96C74.7214 24.1067 74.6747 24.22 74.5814 24.3C74.5014 24.38 74.3947 24.42 74.2614 24.42H67.3414C67.3414 24.4333 67.3414 24.46 67.3414 24.5C67.3414 24.54 67.3414 24.5733 67.3414 24.6C67.3681 25.1467 67.4881 25.66 67.7014 26.14C67.9147 26.6067 68.2214 26.9867 68.6214 27.28C69.0214 27.5733 69.5014 27.72 70.0614 27.72C70.5414 27.72 70.9414 27.6467 71.2614 27.5C71.5814 27.3533 71.8414 27.1933 72.0414 27.02C72.2414 26.8333 72.3747 26.6933 72.4414 26.6C72.5614 26.4267 72.6547 26.3267 72.7214 26.3C72.7881 26.26 72.8947 26.24 73.0414 26.24H74.0014C74.1347 26.24 74.2414 26.28 74.3214 26.36C74.4147 26.4267 74.4547 26.5267 74.4414 26.66C74.4281 26.86 74.3214 27.1067 74.1214 27.4C73.9214 27.68 73.6347 27.96 73.2614 28.24C72.8881 28.52 72.4347 28.7533 71.9014 28.94C71.3681 29.1133 70.7547 29.2 70.0614 29.2ZM67.3414 23.04H72.8214V22.98C72.8214 22.38 72.7081 21.8467 72.4814 21.38C72.2681 20.9133 71.9547 20.5467 71.5414 20.28C71.1281 20 70.6347 19.86 70.0614 19.86C69.4881 19.86 68.9947 20 68.5814 20.28C68.1814 20.5467 67.8747 20.9133 67.6614 21.38C67.4481 21.8467 67.3414 22.38 67.3414 22.98V23.04ZM81.1142 29C80.3676 29 79.7609 28.86 79.2942 28.58C78.8276 28.2867 78.4876 27.88 78.2742 27.36C78.0609 26.8267 77.9542 26.2 77.9542 25.48V20.2H76.3942C76.2609 20.2 76.1476 20.16 76.0542 20.08C75.9742 19.9867 75.9342 19.8733 75.9342 19.74V19.06C75.9342 18.9267 75.9742 18.82 76.0542 18.74C76.1476 18.6467 76.2609 18.6 76.3942 18.6H77.9542V15.26C77.9542 15.1267 77.9942 15.02 78.0742 14.94C78.1676 14.8467 78.2809 14.8 78.4142 14.8H79.3542C79.4876 14.8 79.5942 14.8467 79.6742 14.94C79.7676 15.02 79.8142 15.1267 79.8142 15.26V18.6H82.2942C82.4276 18.6 82.5342 18.6467 82.6142 18.74C82.7076 18.82 82.7542 18.9267 82.7542 19.06V19.74C82.7542 19.8733 82.7076 19.9867 82.6142 20.08C82.5342 20.16 82.4276 20.2 82.2942 20.2H79.8142V25.34C79.8142 25.9667 79.9209 26.46 80.1342 26.82C80.3476 27.18 80.7276 27.36 81.2742 27.36H82.4942C82.6276 27.36 82.7342 27.4067 82.8142 27.5C82.9076 27.58 82.9542 27.6867 82.9542 27.82V28.54C82.9542 28.6733 82.9076 28.7867 82.8142 28.88C82.7342 28.96 82.6276 29 82.4942 29H81.1142ZM90.4891 29C90.3557 29 90.2424 28.96 90.1491 28.88C90.0691 28.7867 90.0291 28.6733 90.0291 28.54V15.48C90.0291 15.3333 90.0691 15.22 90.1491 15.14C90.2424 15.0467 90.3557 15 90.4891 15H91.4891C91.6491 15 91.7691 15.04 91.8491 15.12C91.9291 15.2 91.9757 15.2667 91.9891 15.32L96.2291 23.4L100.489 15.32C100.516 15.2667 100.562 15.2 100.629 15.12C100.709 15.04 100.829 15 100.989 15H101.969C102.116 15 102.229 15.0467 102.309 15.14C102.402 15.22 102.449 15.3333 102.449 15.48V28.54C102.449 28.6733 102.402 28.7867 102.309 28.88C102.229 28.96 102.116 29 101.969 29H100.989C100.856 29 100.742 28.96 100.649 28.88C100.569 28.7867 100.529 28.6733 100.529 28.54V18.7L97.1891 25.22C97.1357 25.3533 97.0557 25.46 96.9491 25.54C96.8424 25.6067 96.7091 25.64 96.5491 25.64H95.9291C95.7557 25.64 95.6157 25.6067 95.5091 25.54C95.4157 25.46 95.3357 25.3533 95.2691 25.22L91.9291 18.7V28.54C91.9291 28.6733 91.8824 28.7867 91.7891 28.88C91.7091 28.96 91.6024 29 91.4691 29H90.4891ZM109.788 29.2C108.415 29.2 107.321 28.78 106.508 27.94C105.695 27.0867 105.248 25.9267 105.168 24.46C105.155 24.2867 105.148 24.0667 105.148 23.8C105.148 23.52 105.155 23.2933 105.168 23.12C105.221 22.1733 105.441 21.3467 105.828 20.64C106.215 19.92 106.741 19.3667 107.408 18.98C108.088 18.5933 108.881 18.4 109.788 18.4C110.801 18.4 111.648 18.6133 112.328 19.04C113.021 19.4667 113.548 20.0733 113.908 20.86C114.268 21.6467 114.448 22.5667 114.448 23.62V23.96C114.448 24.1067 114.401 24.22 114.308 24.3C114.228 24.38 114.121 24.42 113.988 24.42H107.068C107.068 24.4333 107.068 24.46 107.068 24.5C107.068 24.54 107.068 24.5733 107.068 24.6C107.095 25.1467 107.215 25.66 107.428 26.14C107.641 26.6067 107.948 26.9867 108.348 27.28C108.748 27.5733 109.228 27.72 109.788 27.72C110.268 27.72 110.668 27.6467 110.988 27.5C111.308 27.3533 111.568 27.1933 111.768 27.02C111.968 26.8333 112.101 26.6933 112.168 26.6C112.288 26.4267 112.381 26.3267 112.448 26.3C112.515 26.26 112.621 26.24 112.768 26.24H113.728C113.861 26.24 113.968 26.28 114.048 26.36C114.141 26.4267 114.181 26.5267 114.168 26.66C114.155 26.86 114.048 27.1067 113.848 27.4C113.648 27.68 113.361 27.96 112.988 28.24C112.615 28.52 112.161 28.7533 111.628 28.94C111.095 29.1133 110.481 29.2 109.788 29.2ZM107.068 23.04H112.548V22.98C112.548 22.38 112.435 21.8467 112.208 21.38C111.995 20.9133 111.681 20.5467 111.268 20.28C110.855 20 110.361 19.86 109.788 19.86C109.215 19.86 108.721 20 108.308 20.28C107.908 20.5467 107.601 20.9133 107.388 21.38C107.175 21.8467 107.068 22.38 107.068 22.98V23.04ZM117.299 29C117.166 29 117.053 28.96 116.959 28.88C116.879 28.7867 116.839 28.6733 116.839 28.54V19.06C116.839 18.9267 116.879 18.82 116.959 18.74C117.053 18.6467 117.166 18.6 117.299 18.6H118.239C118.373 18.6 118.479 18.6467 118.559 18.74C118.653 18.82 118.699 18.9267 118.699 19.06V19.94C119.046 19.4867 119.479 19.12 119.999 18.84C120.533 18.5467 121.213 18.4 122.039 18.4C122.906 18.4 123.639 18.5933 124.239 18.98C124.853 19.3533 125.313 19.88 125.619 20.56C125.926 21.2267 126.079 22.0067 126.079 22.9V28.54C126.079 28.6733 126.039 28.7867 125.959 28.88C125.879 28.96 125.773 29 125.639 29H124.639C124.506 29 124.393 28.96 124.299 28.88C124.219 28.7867 124.179 28.6733 124.179 28.54V23C124.179 22.0667 123.953 21.34 123.499 20.82C123.046 20.2867 122.379 20.02 121.499 20.02C120.673 20.02 120.006 20.2867 119.499 20.82C119.006 21.34 118.759 22.0667 118.759 23V28.54C118.759 28.6733 118.713 28.7867 118.619 28.88C118.539 28.96 118.433 29 118.299 29H117.299ZM132.848 29.2C131.995 29.2 131.268 29.0133 130.668 28.64C130.082 28.2533 129.635 27.72 129.328 27.04C129.022 26.36 128.868 25.58 128.868 24.7V19.06C128.868 18.9267 128.908 18.82 128.988 18.74C129.082 18.6467 129.195 18.6 129.328 18.6H130.328C130.462 18.6 130.568 18.6467 130.648 18.74C130.742 18.82 130.788 18.9267 130.788 19.06V24.6C130.788 26.5867 131.655 27.58 133.388 27.58C134.215 27.58 134.875 27.32 135.368 26.8C135.875 26.2667 136.128 25.5333 136.128 24.6V19.06C136.128 18.9267 136.168 18.82 136.248 18.74C136.342 18.6467 136.455 18.6 136.588 18.6H137.568C137.715 18.6 137.828 18.6467 137.908 18.74C137.988 18.82 138.028 18.9267 138.028 19.06V28.54C138.028 28.6733 137.988 28.7867 137.908 28.88C137.828 28.96 137.715 29 137.568 29H136.648C136.515 29 136.402 28.96 136.308 28.88C136.228 28.7867 136.188 28.6733 136.188 28.54V27.66C135.828 28.1267 135.388 28.5 134.868 28.78C134.362 29.06 133.688 29.2 132.848 29.2Z" fill="#363853"/>
<g clip-path="url(#clip0_0_226)">
<path d="M31.158 14.6574L30.6872 13.1258C30.0892 11.3861 28.1775 10.455 26.4173 11.046C25.4271 11.3786 24.6495 12.1471 24.3131 13.1258L23.8423 14.6574C23.4461 15.949 23.363 17.3147 23.5996 18.6439C23.8154 19.763 24.5342 20.7245 25.5532 21.2569L25.0259 32.907C24.9553 33.5572 25.1687 34.2064 25.6126 34.6915C26.5671 35.7235 28.1874 35.7952 29.2315 34.8518C29.2879 34.8008 29.342 34.7473 29.3936 34.6915C29.8276 34.2202 30.0406 33.59 29.9803 32.9555L29.4501 21.2555C30.4677 20.7228 31.1853 19.762 31.4008 18.6439C31.6373 17.3147 31.5542 15.949 31.158 14.6574ZM29.9561 18.3917C29.7973 19.1957 29.2176 19.8554 28.4344 20.1233C28.1372 20.2337 27.9457 20.5208 27.96 20.8343L28.5173 33.0701C28.543 33.3101 28.4628 33.5494 28.2973 33.7268C27.8557 34.1588 27.1446 34.1588 26.703 33.7268C26.5292 33.535 26.4503 33.277 26.4874 33.0222L27.0404 20.8343C27.0547 20.5208 26.8632 20.2337 26.5659 20.1233C25.7827 19.8554 25.203 19.1957 25.0442 18.3917C24.8481 17.2881 24.9172 16.1544 25.2459 15.0821L25.7167 13.5499C26.081 12.5763 27.1747 12.079 28.1598 12.4391C28.6806 12.6294 29.091 13.0352 29.2836 13.5499L29.7544 15.0821C30.0828 16.1545 30.1519 17.2881 29.9561 18.3917Z" fill="#363853"/>
<path d="M19.8 10.8723C19.395 10.8723 19.0667 11.1969 19.0667 11.5971V17.8205L17.0815 19.7826C16.9347 19.9272 16.8566 20.1266 16.8667 20.3313L17.5083 33.0157C17.5236 33.2892 17.4232 33.5567 17.2311 33.7543C16.8297 34.1545 16.176 34.1574 15.7709 33.7606C15.7687 33.7585 15.7666 33.7563 15.7645 33.7543C15.5723 33.5567 15.472 33.2892 15.4873 33.0157L16.1333 20.3313C16.1436 20.1267 16.0658 19.9273 15.9192 19.7826L13.9333 17.8205V11.5971C13.9333 11.1969 13.605 10.8723 13.2 10.8723C12.795 10.8723 12.4667 11.1969 12.4667 11.5971V18.1205C12.4667 18.3128 12.544 18.4971 12.6815 18.633L14.6513 20.5806L14.0257 32.9454C13.9592 34.296 15.013 35.4443 16.3795 35.51C17.7459 35.5758 18.9077 34.5343 18.9743 33.1836C18.9782 33.1043 18.9782 33.0248 18.9743 32.9454L18.3487 20.5807L20.3185 18.6331C20.456 18.4972 20.5333 18.3129 20.5333 18.1206V11.5972C20.5333 11.1969 20.205 10.8723 19.8 10.8723Z" fill="#363853"/>
<path d="M15.4 10.8723C14.995 10.8723 14.6667 11.1969 14.6667 11.5971V17.3957C14.6667 17.796 14.995 18.1205 15.4 18.1205C15.805 18.1205 16.1333 17.796 16.1333 17.3957V11.5971C16.1333 11.1969 15.805 10.8723 15.4 10.8723Z" fill="#363853"/>
<path d="M17.6 10.8723C17.195 10.8723 16.8667 11.1969 16.8667 11.5971V17.3957C16.8667 17.796 17.195 18.1205 17.6 18.1205C18.005 18.1205 18.3333 17.796 18.3333 17.3957V11.5971C18.3333 11.1969 18.005 10.8723 17.6 10.8723Z" fill="#363853"/>
<path d="M22 0C9.84977 0 0 9.73546 0 21.7447C0 33.7539 9.84977 43.4894 22 43.4894C34.1502 43.4894 44 33.7539 44 21.7447C43.9863 9.74108 34.1446 0.0135904 22 0ZM22 42.0397C10.6597 42.0397 1.46667 32.9534 1.46667 21.7447C1.46667 10.536 10.6597 1.44965 22 1.44965C33.3403 1.44965 42.5333 10.536 42.5333 21.7447C42.5204 32.948 33.3349 42.027 22 42.0397Z" fill="#363853"/>
<path d="M24.3804 35.3511C24.3411 34.9525 23.9824 34.6609 23.5792 34.6998C23.5698 34.7007 23.5604 34.7018 23.5509 34.703L23.5539 34.7023C22.5214 34.8209 21.4784 34.8209 20.446 34.7023C20.0436 34.6556 19.6792 34.9404 19.632 35.3383C19.5848 35.7363 19.8727 36.0966 20.2751 36.1433C21.4201 36.2755 22.5768 36.2755 23.7218 36.1433C24.1248 36.1045 24.4197 35.7498 24.3804 35.3511Z" fill="#363853"/>
<path d="M33.2202 12.4046C32.9599 12.0979 32.4974 12.0577 32.1871 12.315C32.1861 12.3159 32.1851 12.3168 32.184 12.3176C31.8744 12.5756 31.835 13.0328 32.096 13.3389C36.5175 18.5268 36.1793 26.198 31.3179 30.9861C31.031 31.2687 31.0302 31.7278 31.3161 32.0114C31.602 32.295 32.0665 32.2958 32.3534 32.0132C37.756 26.6936 38.1327 18.1695 33.2202 12.4046Z" fill="#363853"/>
<path d="M17.0859 9.58157C17.0854 9.58157 17.085 9.58057 17.0845 9.58057C17.0838 9.58057 17.083 9.58157 17.0822 9.58157H17.0859Z" fill="#363853"/>
<path d="M25.4592 7.65335C22.5932 6.97447 19.5874 7.15694 16.8271 8.1774C16.4479 8.31829 16.2563 8.73633 16.3988 9.11097C16.5062 9.39338 16.7794 9.5803 17.0846 9.58057C17.1723 9.58011 17.2592 9.56426 17.3411 9.53355C19.827 8.61474 22.5337 8.45066 25.1145 9.06241C25.5082 9.15646 25.9045 8.91736 25.9996 8.52822C26.0948 8.13908 25.8529 7.7474 25.4592 7.65335Z" fill="#363853"/>
<path d="M12.6492 30.9499C10.1771 28.5106 8.79151 25.1973 8.79994 21.7446C8.7927 18.9861 9.67674 16.2974 11.3233 14.0702C11.5667 13.7502 11.5015 13.2958 11.1778 13.0553C10.854 12.8147 10.3943 12.8791 10.1509 13.1992C10.1466 13.2049 10.1424 13.2106 10.1383 13.2164C5.89842 18.9776 6.5223 26.9299 11.6101 31.9762C11.8968 32.2598 12.3619 32.26 12.6488 31.9766C12.9358 31.6932 12.9359 31.2335 12.6492 30.9499Z" fill="#363853"/>
</g>
<defs>
<clipPath id="clip0_0_226">
<rect width="44" height="43.4894" fill="white"/>
</clipPath>
</defs>
</svg>
